<?xml version="1.0" encoding="UTF-8"?>
<svg xmlns="http://www.w3.org/2000/svg" xmlns:xlink="http://www.w3.org/1999/xlink" width="23px" height="27px" viewBox="0 0 23 26" version="1.1">
<g id="surface1">
<path style=" stroke:none;fill-rule:nonzero;fill:rgb(100%,100%,100%);fill-opacity:1;" d="M 11.503906 7.4375 C 8.242188 7.4375 5.605469 9.917969 5.605469 12.996094 C 5.605469 16.070312 8.242188 18.550781 11.503906 18.550781 C 14.769531 18.550781 17.40625 16.070312 17.40625 12.996094 C 17.40625 9.917969 14.769531 7.4375 11.503906 7.4375 Z M 11.503906 16.609375 C 9.394531 16.609375 7.671875 14.988281 7.671875 12.996094 C 7.671875 11.003906 9.386719 9.382812 11.503906 9.382812 C 13.621094 9.382812 15.339844 11.003906 15.339844 12.996094 C 15.339844 14.988281 13.617188 16.609375 11.503906 16.609375 Z M 19.023438 7.210938 C 19.023438 7.929688 18.402344 8.507812 17.644531 8.507812 C 16.878906 8.507812 16.273438 7.925781 16.273438 7.210938 C 16.273438 6.496094 16.886719 5.914062 17.644531 5.914062 C 18.402344 5.914062 19.023438 6.496094 19.023438 7.210938 Z M 22.929688 8.527344 C 22.839844 6.789062 22.421875 5.253906 21.066406 3.984375 C 19.726562 2.71875 18.09375 2.320312 16.246094 2.234375 C 14.351562 2.132812 8.65625 2.132812 6.757812 2.234375 C 4.917969 2.316406 3.285156 2.714844 1.9375 3.980469 C 0.582031 5.246094 0.167969 6.785156 0.0742188 8.523438 C -0.03125 10.3125 -0.03125 15.675781 0.0742188 17.464844 C 0.164062 19.199219 0.582031 20.738281 1.9375 22.003906 C 3.285156 23.273438 4.910156 23.667969 6.757812 23.757812 C 8.65625 23.859375 14.351562 23.859375 16.246094 23.757812 C 18.09375 23.671875 19.726562 23.277344 21.066406 22.003906 C 22.417969 20.738281 22.835938 19.199219 22.929688 17.464844 C 23.035156 15.675781 23.035156 10.316406 22.929688 8.527344 Z M 20.472656 19.382812 C 20.074219 20.332031 19.296875 21.0625 18.289062 21.445312 C 16.769531 22.011719 13.175781 21.878906 11.503906 21.878906 C 9.832031 21.878906 6.234375 22.003906 4.722656 21.445312 C 3.71875 21.066406 2.941406 20.335938 2.535156 19.382812 C 1.9375 17.957031 2.078125 14.570312 2.078125 12.996094 C 2.078125 11.417969 1.941406 8.027344 2.535156 6.605469 C 2.933594 5.660156 3.714844 4.929688 4.722656 4.546875 C 6.238281 3.980469 9.832031 4.109375 11.503906 4.109375 C 13.175781 4.109375 16.777344 3.984375 18.289062 4.546875 C 19.292969 4.921875 20.070312 5.652344 20.472656 6.605469 C 21.074219 8.03125 20.9375 11.417969 20.9375 12.996094 C 20.9375 14.570312 21.074219 17.960938 20.472656 19.382812 Z M 20.472656 19.382812 "/>
</g>
</svg>
