<?xml version="1.0" encoding="UTF-8"?>
<svg xmlns="http://www.w3.org/2000/svg" xmlns:xlink="http://www.w3.org/1999/xlink" width="30px" height="27px" viewBox="0 0 30 27" version="1.1">
<g id="surface1">
<path style=" stroke:none;fill-rule:nonzero;fill:rgb(0%,0%,0%);fill-opacity:1;" d="M 28.386719 6.210938 C 28.582031 5.550781 28.386719 5.0625 27.460938 5.0625 L 24.386719 5.0625 C 23.605469 5.0625 23.25 5.476562 23.058594 5.945312 C 23.058594 5.945312 21.496094 9.796875 19.285156 12.300781 C 18.574219 13.019531 18.242188 13.25 17.851562 13.25 C 17.664062 13.25 17.363281 13.019531 17.363281 12.359375 L 17.363281 6.210938 C 17.363281 5.417969 17.148438 5.0625 16.496094 5.0625 L 11.679688 5.0625 C 11.183594 5.0625 10.898438 5.429688 10.898438 5.773438 C 10.898438 6.527344 12 6.695312 12.117188 8.804688 L 12.117188 13.382812 C 12.117188 14.382812 11.941406 14.566406 11.550781 14.566406 C 10.507812 14.566406 7.976562 10.699219 6.472656 6.269531 C 6.171875 5.410156 5.871094 5.0625 5.089844 5.0625 L 2.019531 5.0625 C 1.144531 5.0625 0.96875 5.476562 0.96875 5.945312 C 0.96875 6.761719 2.011719 10.851562 5.820312 16.253906 C 8.351562 19.941406 11.925781 21.9375 15.175781 21.9375 C 17.128906 21.9375 17.371094 21.496094 17.371094 20.730469 C 17.371094 17.203125 17.195312 16.875 18.171875 16.875 C 18.625 16.875 19.40625 17.105469 21.230469 18.886719 C 23.3125 20.996094 23.660156 21.9375 24.824219 21.9375 L 27.890625 21.9375 C 28.761719 21.9375 29.207031 21.496094 28.953125 20.617188 C 28.371094 18.78125 24.425781 14.988281 24.25 14.738281 C 23.796875 14.144531 23.925781 13.882812 24.25 13.355469 C 24.257812 13.355469 28 8.015625 28.386719 6.210938 Z M 28.386719 6.210938 "/>
</g>
</svg>
